<?xml version="1.0" encoding="utf-8"?>
<!-- Generator: Adobe Illustrator 28.4.1, SVG Export Plug-In . SVG Version: 6.00 Build 0)  -->
<svg version="1.1" id="Layer_1" xmlns="http://www.w3.org/2000/svg" xmlns:xlink="http://www.w3.org/1999/xlink" x="0px" y="0px"
	 viewBox="0 0 24 24" style="enable-background:new 0 0 24 24;" xml:space="preserve">
<style type="text/css">
	.st0{fill:#F0BD23;}
</style>
<path class="st0" d="M21,8c0.4,0.6-0.1,1.3-0.8,1.3H3c-0.6,0-1-0.4-1-1V6.4C2,4,4,2,6.4,2h2.3c1.6,0,2.1,0.5,2.8,1.4l1.4,1.9
	c0.3,0.4,0.3,0.5,0.9,0.5h2.8C18.5,5.7,20.1,6.6,21,8z"/>
<path class="st0" d="M21,10.8c0.6,0,1,0.4,1,1l0,4.9c0,3-2.4,5.4-5.4,5.4H7.3C4.4,22,2,19.6,2,16.7v-4.9c0-0.6,0.4-1,1-1L21,10.8z"
	/>
</svg>
